<svg width="36" height="36" viewBox="0 0 36 36" fill="none" xmlns="http://www.w3.org/2000/svg">
  <defs>
    <linearGradient id="sm-fav-grad" x1="2" y1="4" x2="34" y2="32" gradientUnits="userSpaceOnUse">
      <stop offset="0%" stopColor="#5865f2" />
      <stop offset="100%" stopColor="#7289da" />
    </linearGradient>
  </defs>
  <rect width="36" height="36" rx="8" fill="#090a10" />
  <g transform="translate(2, 2) scale(0.88)">
    <rect x="3" y="6" width="20" height="24" rx="6" fill="url(#sm-fav-grad)" />
    <circle cx="13" cy="18" r="5.5" fill="#ffffff" fill-opacity="0.22" />
    <circle cx="13" cy="18" r="3.2" fill="#ffffff" />
    <circle cx="14.2" cy="16.8" r="1" fill="#5865f2" />
    <path d="M 3 14 C 4.5 14 5.5 15.2 5.5 16.5 C 5.5 17.8 4.5 19 3 19" stroke="#ffffff" stroke-width="1.8" stroke-linecap="round" fill="none" stroke-opacity="0.85" />
    <path d="M 24 13 L 30.8 8.8 C 31.8 8.2 33 8.9 33 10.2 L 33 25.8 C 33 27.1 31.8 27.8 30.8 27.2 L 24 23 Z" fill="url(#sm-fav-grad)" />
    <circle cx="28.5" cy="18" r="1.4" fill="#ffffff" fill-opacity="0.8" />
  </g>
</svg>